<?xml version="1.0" encoding="UTF-8"?>
<svg version="1.1" xmlns="http://www.w3.org/2000/svg" width="1254" height="1254">
<path d="M0 0 C7.66404672 4.8999643 14.38954282 10.77705237 21 17 C21.60328125 17.53882813 22.2065625 18.07765625 22.828125 18.6328125 C38.8678351 33.54824386 49.22606031 55.25614811 50.125 77.02734375 C50.53386298 98.51820421 43.00638106 112.27640304 28.47314453 127.48144531 C25.26835133 130.7850273 21.99774944 134.02060024 18.703125 137.234375 C16.66701907 139.31755853 14.77297915 141.40385453 12.88340759 143.6124115 C8.83169858 148.25834036 4.52546762 152.61504355 0.16235352 156.96704102 C-0.69388611 157.82503296 -1.55012573 158.6830249 -2.43231201 159.5670166 C-4.75900354 161.89733001 -7.0878983 164.22541128 -9.41799426 166.55231977 C-11.87010096 169.00187327 -14.31974253 171.45389015 -16.76979065 173.90550232 C-20.88257397 178.02009876 -24.99744692 182.13259656 -29.11352539 186.24389648 C-33.85453938 190.97946951 -38.59194049 195.71863389 -43.32748169 200.45967919 C-47.41248825 204.54924139 -51.49946237 208.63682959 -55.58805138 212.72281021 C-58.02162654 215.15483604 -60.45454421 217.58750928 -62.88567924 220.02197456 C-65.59901997 222.737868 -68.31556849 225.45051288 -71.03295898 228.16235352 C-71.82541519 228.95683395 -72.6178714 229.75131439 -73.43434143 230.56987 C-77.53399517 234.65410467 -81.72291478 238.55301452 -86.10582066 242.33055019 C-89.17660667 245.03701151 -92.05103541 247.92794697 -94.93164062 250.83398438 C-95.57344772 251.47725174 -96.21525482 252.1205191 -96.87651062 252.78327942 C-98.25528115 254.16582472 -99.63289651 255.54952286 -101.00944519 256.9342804 C-103.19418582 259.13190961 -105.38214426 261.32629034 -107.57092285 263.51989746 C-112.21677565 268.17711839 -116.85868136 272.83826095 -121.5 277.5 C-126.88291258 282.90659578 -132.26747557 288.31152634 -137.65629578 293.7122345 C-139.80081509 295.86318631 -141.94227484 298.01715172 -144.08361816 300.17126465 C-145.41171531 301.50299784 -146.73995504 302.83458885 -148.06835938 304.16601562 C-148.65352829 304.75635086 -149.2386972 305.3466861 -149.84159851 305.95491028 C-153.50787753 309.62164821 -157.30706228 313.08138947 -161.23810577 316.46295929 C-163.55307323 318.48248984 -165.72004016 320.62398543 -167.875 322.8125 C-169.13570312 324.08480469 -169.13570312 324.08480469 -170.421875 325.3828125 C-171.27265625 326.24648438 -172.1234375 327.11015625 -173 328 C-178.22212749 333.30125064 -183.45149124 338.47967974 -189.1015625 343.32421875 C-192.3895664 346.22659256 -195.43081547 349.36990464 -198.5 352.5 C-202.90657874 356.95427016 -207.32183256 361.28892161 -212.11328125 365.33203125 C-215.4196423 368.25504609 -218.45823324 371.45161624 -221.55859375 374.58984375 C-224.27202727 377.26854532 -227.10777023 379.74608118 -230.00390625 382.22265625 C-233.0652964 384.94855159 -235.89965164 387.89141358 -238.77734375 390.80859375 C-241.4270144 393.42101068 -244.21172803 395.83302621 -247.03515625 398.25390625 C-249.81424514 400.7235936 -252.38860496 403.37903322 -254.99609375 406.02734375 C-257.58246151 408.57337829 -260.3153528 410.92021557 -263.06640625 413.28515625 C-265.56431556 415.5004738 -267.88024989 417.8689817 -270.21875 420.25 C-272.71896185 422.70634849 -275.37680516 424.96309368 -278.03125 427.25 C-280.50593476 429.44971978 -282.80665595 431.79331841 -285.12451172 434.15576172 C-286.93557939 435.93665279 -288.80117664 437.60193148 -290.7265625 439.2578125 C-294.87394501 442.86365173 -298.88324993 446.59857052 -302.875 450.375 C-308.03328333 455.23366655 -313.22443982 460.04315554 -318.51171875 464.76171875 C-321.53377928 467.48014996 -324.51757581 470.23824072 -327.5 473 C-332.95613695 478.04962616 -338.46103976 483.04122545 -344 488 C-349.40338021 492.84471085 -354.78354324 497.71219933 -360.125 502.625 C-364.04250658 506.22653881 -367.99641653 509.77788211 -372.015625 513.265625 C-376.05374691 516.79500714 -380.01914681 520.40634226 -384 524 C-386.49687992 526.24796977 -388.99453151 528.49508007 -391.4921875 530.7421875 C-393.18592894 532.26708244 -394.87861169 533.79315402 -396.5703125 535.3203125 C-400.9954813 539.31243726 -405.44337135 543.27325892 -409.9375 547.1875 C-412.30964429 549.27211164 -414.65556065 551.38428644 -417 553.5 C-420.62023723 556.76704335 -424.26983565 559.99520776 -427.94921875 563.1953125 C-430.26088797 565.22958141 -432.5353143 567.3022231 -434.8125 569.375 C-438.18940982 572.42858867 -441.63217132 575.34429205 -445.1875 578.1875 C-451.25320218 583.09003486 -456.88164977 588.42258037 -462.5546875 593.76953125 C-465.68043182 596.7128424 -468.86873161 599.56830219 -472.12109375 602.37109375 C-476.13576169 605.8515855 -480.05673094 609.43910854 -484 613 C-493.4921875 621.57173295 -493.4921875 621.57173295 -497.875 625.375 C-501.7915024 628.78614726 -505.6150761 632.29592653 -509.43701172 635.81201172 C-512.60743932 638.7276106 -515.79377621 641.62367705 -519 644.5 C-529.11338937 653.58436406 -539.07464641 662.83051941 -548.99511719 672.12451172 C-551.02722126 674.02546441 -553.06418133 675.92111194 -555.1015625 677.81640625 C-563.49352564 685.64512414 -571.71290976 693.61482113 -579.76098633 701.79785156 C-580.80935669 702.85891113 -580.80935669 702.85891113 -581.87890625 703.94140625 C-582.4829126 704.55701416 -583.08691895 705.17262207 -583.70922852 705.80688477 C-585.58565694 707.60332051 -587.49259501 709.28305638 -589.46678162 710.96777344 C-594.82019885 715.64384701 -599.80786936 720.67550751 -604.82226562 725.70874023 C-605.88725644 726.77401369 -606.95246862 727.83906587 -608.0178833 728.90391541 C-610.8873292 731.77307632 -613.75369788 734.64529323 -616.61949348 737.51809955 C-619.62322707 740.52811659 -622.62982377 743.5352711 -625.6361084 746.54273987 C-631.31857437 752.22830451 -636.99848807 757.91641172 -642.67747259 763.60545355 C-649.14713088 770.08631863 -655.61965467 776.56431869 -662.09241199 783.04208839 C-675.39811574 796.35822333 -688.70024514 809.67792362 -702 823 C-701.0046174 824.99778044 -700.0052421 826.9900499 -698.96484375 828.96484375 C-694.99700187 836.58370364 -693.94822536 843.2946663 -695.9375 851.8125 C-698.3899856 859.35418106 -704.0573945 865.78900785 -711 869.625 C-718.40964424 872.36931268 -729.94840911 872.80141112 -737.25 869.75 C-745.83003142 864.33916938 -753.10616068 855.98134082 -760.171875 848.796875 C-762.07333907 846.92791459 -764.04382779 845.17879741 -766.0625 843.4375 C-789.06043693 823.52683476 -789.06043693 823.52683476 -790.16015625 810.03515625 C-790.55777843 800.19832928 -787.62026032 792.26038727 -781 785 C-775.46206155 779.74605839 -768.6566667 777.01425822 -761 777 C-754.8160681 777.60626783 -750.19032705 779.75905456 -745.04296875 783.171875 C-743.02221035 784.26315048 -743.02221035 784.26315048 -741.06884766 783.24755859 C-738.94478789 781.96670594 -737.52805917 780.69006103 -735.85546875 778.8671875 C-734.97568359 777.91779297 -734.97568359 777.91779297 -734.078125 776.94921875 C-733.45421875 776.26472656 -732.8303125 775.58023438 -732.1875 774.875 C-730.83739072 773.41392283 -729.48712601 771.95298927 -728.13671875 770.4921875 C-727.44884277 769.74420898 -726.7609668 768.99623047 -726.05224609 768.22558594 C-722.890136 764.79639303 -719.69454522 761.39894554 -716.5 758 C-715.25112319 756.66813647 -714.00242586 755.33610463 -712.75390625 754.00390625 C-710.24134005 751.323792 -707.72827219 748.64414939 -705.21484375 745.96484375 C-693.25513422 733.21471583 -681.31230991 720.45006921 -669.46777344 707.59277344 C-667.48105077 705.43685549 -665.49242499 703.28269793 -663.50366211 701.12866211 C-662.50434103 700.04626709 -661.50515397 698.96374832 -660.50610352 697.88110352 C-657.97084791 695.13378275 -655.43404996 692.38791223 -652.89453125 689.64453125 C-646.87785578 683.14188988 -640.91053441 676.59955845 -635 670 C-633.50043381 668.332943 -632.00042947 666.66628005 -630.5 665 C-629.38625 663.76056641 -629.38625 663.76056641 -628.25 662.49609375 C-626.75517311 660.83777017 -625.2551942 659.18407559 -623.75 657.53515625 C-619.8972226 653.30111442 -616.16135685 649.01521568 -612.5625 644.5625 C-609.48663412 640.75912497 -606.31246834 637.09917348 -603 633.5 C-598.94016355 629.08359856 -595.10676179 624.53836478 -591.33984375 619.87109375 C-588.81266677 616.77013368 -586.2238488 613.72824907 -583.625 610.6875 C-579.32104292 605.63878625 -575.19717325 600.47211273 -571.12768555 595.23339844 C-567.99276824 591.21544507 -564.75438623 587.3061302 -561.4375 583.4375 C-557.41339687 578.73739294 -553.57562455 573.93308234 -549.83300781 569.0065918 C-546.68362151 564.86639426 -543.45227495 560.79965827 -540.1875 556.75 C-535.89310769 551.41724352 -531.70073612 546.01719346 -527.5625 540.5625 C-522.79012595 534.27530136 -517.88171485 528.12157614 -512.87524414 522.01977539 C-508.980836 517.25487314 -505.21654426 512.40456495 -501.5 507.5 C-496.69945835 501.16701669 -491.76983236 494.96005335 -486.73657227 488.81079102 C-482.79500136 483.99238886 -478.92724863 479.12226201 -475.09326172 474.21801758 C-471.25845719 469.3164452 -467.37259383 464.45717902 -463.47802734 459.60302734 C-460.14512078 455.44415361 -456.84508715 451.26115799 -453.5625 447.0625 C-449.05741077 441.30382072 -444.45883855 435.6257169 -439.83618164 429.96118164 C-436.344813 425.67568562 -432.90188166 421.35679581 -429.5 417 C-425.0179989 411.25989332 -420.44043443 405.60306754 -415.8359375 399.9609375 C-412.34469917 395.67548382 -408.90181112 391.35670547 -405.5 387 C-401.01736805 381.25908539 -396.43955976 375.60112223 -391.83374023 369.95874023 C-388.36106518 365.69689091 -384.94173694 361.39868899 -381.5625 357.0625 C-376.88160799 351.05994437 -372.05454024 345.1865569 -367.19824219 339.32543945 C-363.50022523 334.85201549 -359.87503439 330.33187226 -356.3125 325.75 C-352.37287957 320.68477374 -348.29623897 315.76442569 -344.12207031 310.89135742 C-340.82826489 307.02774003 -337.67375709 303.07407606 -334.5625 299.0625 C-330.28644387 293.55342356 -325.82869193 288.23501773 -321.26538086 282.96240234 C-317.82791494 278.98523363 -314.50793575 274.93557679 -311.24609375 270.8125 C-303.60933419 261.2499489 -295.76048011 251.85408546 -287.83276367 242.53198242 C-284.26982791 238.33692352 -280.78681655 234.08094605 -277.3125 229.8125 C-274.2756723 226.1190609 -271.18039045 222.47701514 -268.08374023 218.83374023 C-265.2045468 215.44045891 -262.36795763 212.01732214 -259.5625 208.5625 C-255.60491812 203.69870975 -251.53457554 198.94118769 -247.44165039 194.19165039 C-244.41054711 190.66701081 -241.43014684 187.10960118 -238.5 183.5 C-234.10937717 178.09493724 -229.58087403 172.81676248 -225.0390625 167.5390625 C-222.17402955 164.20834801 -219.33337368 160.85765533 -216.5 157.5 C-212.18488986 152.3887326 -207.8383323 147.30530728 -203.48046875 142.23046875 C-200.13707619 138.33416372 -196.812184 134.42285675 -193.5 130.5 C-185.03064076 120.47361673 -176.47030556 110.52657013 -167.86474609 100.61694336 C-164.13946062 96.32433005 -160.4401722 92.01030687 -156.75 87.6875 C-153.32559051 83.67652499 -149.86273272 79.71344895 -146.3125 75.8125 C-143.30185521 72.4991692 -140.43434822 69.11058071 -137.625 65.625 C-133.94298465 61.07059077 -130.07099643 56.76252435 -126.08422852 52.47875977 C-123.1131325 49.26736593 -120.30053412 45.97390237 -117.5625 42.5625 C-113.20258694 37.14587552 -108.52524121 32.08061704 -103.78515625 27 C-101.58472434 24.63992458 -99.42918543 22.24840713 -97.3125 19.8125 C-96.77753906 19.19761719 -96.24257813 18.58273438 -95.69140625 17.94921875 C-94.44755073 16.51576862 -93.20564709 15.08062418 -91.96484375 13.64453125 C-66.2853922 -15.56754326 -33.24976316 -19.69583515 0 0 Z " fill="#040404" transform="translate(1024,188)"/>
<path d="M0 0 C0 6.05569782 -3.84655763 10.26999904 -7.59765625 14.6796875 C-9 16 -9 16 -11 16 C-11.0825 16.556875 -11.165 17.11375 -11.25 17.6875 C-12.91370463 22.81725595 -16.39784703 25.52191763 -21 28 C-21.99 28.66 -22.98 29.32 -24 30 C-22.71076019 27.21176763 -21.31380469 25.01003398 -19.27734375 22.71484375 C-18.74262451 22.10648682 -18.20790527 21.49812988 -17.65698242 20.87133789 C-17.08955322 20.23317139 -16.52212402 19.59500488 -15.9375 18.9375 C-10.48368179 12.73158818 -5.17971337 6.43783496 0 0 Z " fill="#6D6E6E" transform="translate(790,366)"/>
<path d="M0 0 C1.32 0.66 2.64 1.32 4 2 C2.88121617 3.17262904 1.75476949 4.33795138 0.625 5.5 C-0.00148438 6.1496875 -0.62796875 6.799375 -1.2734375 7.46875 C-3 9 -3 9 -5 9 C-5 9.66 -5 10.32 -5 11 C-7.8125 13.6875 -7.8125 13.6875 -11 16 C-11.99 15.67 -12.98 15.34 -14 15 C-12.0421736 12.87453098 -10.08376183 10.74960666 -8.125 8.625 C-7.29162109 7.72007812 -7.29162109 7.72007812 -6.44140625 6.796875 C-5.90644531 6.21679688 -5.37148438 5.63671875 -4.8203125 5.0390625 C-4.08192139 4.23782959 -4.08192139 4.23782959 -3.32861328 3.42041016 C-2.24184238 2.25855182 -1.12494128 1.12494128 0 0 Z " fill="#4C4C4D" transform="translate(345,906)"/>
<path d="M0 0 C0.33 0 0.66 0 1 0 C1.3125 2.1875 1.3125 2.1875 1 5 C-1.25 7.5 -1.25 7.5 -4 10 C-4.639375 10.845625 -5.27875 11.69125 -5.9375 12.5625 C-8.31430291 15.37144889 -10.8773482 17.08382731 -14 19 C-12.6721359 16.15351155 -11.17517011 13.77893925 -9.21484375 11.328125 C-8.68439453 10.66425781 -8.15394531 10.00039063 -7.60742188 9.31640625 C-7.05634766 8.63449219 -6.50527344 7.95257812 -5.9375 7.25 C-5.38255859 6.55261719 -4.82761719 5.85523438 -4.25585938 5.13671875 C-1.19439692 1.32573869 -1.19439692 1.32573869 0 0 Z " fill="#777778" transform="translate(516,704)"/>
<path d="M0 0 C0 4.4006391 -0.19627778 6.15283334 -3.3125 9.4375 C-4.199375 10.283125 -5.08625 11.12875 -6 12 C-6.70125 12.928125 -7.4025 13.85625 -8.125 14.8125 C-9.053125 15.8953125 -9.053125 15.8953125 -10 17 C-10.99 17 -11.98 17 -13 17 C-11.2703384 12.79046213 -8.31793255 9.64856424 -5.375 6.25 C-4.859375 5.64800781 -4.34375 5.04601562 -3.8125 4.42578125 C-2.54530865 2.94739134 -1.27314225 1.47326829 0 0 Z " fill="#747475" transform="translate(725,444)"/>
<path d="M0 0 C0.57861328 1.85913086 0.57861328 1.85913086 1 4 C-1.83701748 9.08372387 -5.69452912 13.49463875 -11 16 C-11.99 16.66 -12.98 17.32 -14 18 C-12.68761832 15.15741394 -11.23292824 12.90591755 -9.1796875 10.546875 C-8.64472656 9.928125 -8.10976563 9.309375 -7.55859375 8.671875 C-7.00300781 8.03765625 -6.44742188 7.4034375 -5.875 6.75 C-5.31167969 6.1003125 -4.74835937 5.450625 -4.16796875 4.78125 C-2.78235636 3.184273 -1.39167246 1.59169878 0 0 Z " fill="#6C6C6D" transform="translate(765,396)"/>
<path d="M0 0 C0 3.847511 -0.86925069 6.82816797 -3 10 C-5.51121753 11.9861898 -8.1578202 13.53502846 -11 15 C-9.3718356 11.24269753 -6.98598083 8.383177 -4.375 5.25 C-3.55773437 4.26515625 -2.74046875 3.2803125 -1.8984375 2.265625 C-1.27195312 1.51796875 -0.64546875 0.7703125 0 0 Z " fill="#757677" transform="translate(487,741)"/>
<path d="M0 0 C0 3.98919362 -1.17179136 6.46966608 -3 10 C-5.5625 11.875 -5.5625 11.875 -8 13 C-8.99 13.495 -8.99 13.495 -10 14 C-8.43632643 10.47761953 -6.30504111 7.72876006 -3.875 4.75 C-3.15054688 3.85796875 -2.42609375 2.9659375 -1.6796875 2.046875 C-0.84824219 1.03367187 -0.84824219 1.03367187 0 0 Z " fill="#787979" transform="translate(569,637)"/>
<path d="M0 0 C0 3.21536008 -0.34952303 4.31413064 -2 7 C-3.9453125 8.921875 -3.9453125 8.921875 -6.125 10.75 C-7.21167969 11.67039063 -7.21167969 11.67039063 -8.3203125 12.609375 C-8.87460937 13.06828125 -9.42890625 13.5271875 -10 14 C-10 9.84439769 -7.7179548 8.15900671 -5 5.3125 C-4.52304687 4.80138672 -4.04609375 4.29027344 -3.5546875 3.76367188 C-2.37640085 2.50290516 -1.18904747 1.25062314 0 0 Z " fill="#7D7D7E" transform="translate(900,238)"/>
<path d="M0 0 C0.66 0.33 1.32 0.66 2 1 C0.19019128 2.66967526 -1.6226476 4.33582308 -3.4375 6 C-4.2119043 6.71542969 -4.2119043 6.71542969 -5.00195312 7.4453125 C-8.88671875 11 -8.88671875 11 -10 11 C-10.3125 8.6875 -10.3125 8.6875 -10 6 C-7.75 4.3125 -7.75 4.3125 -5 3 C-4.2575 2.62875 -3.515 2.2575 -2.75 1.875 C-2.1725 1.58625 -1.595 1.2975 -1 1 C-0.67 0.67 -0.34 0.34 0 0 Z " fill="#717072" transform="translate(714,642)"/>
<path d="M0 0 C0.66 0.99 1.32 1.98 2 3 C-0.22480634 6.39575704 -2.4620023 8.05410126 -6 10 C-6.99 10.66 -7.98 11.32 -9 12 C-7.55575365 8.76138697 -5.74227753 6.38030837 -3.375 3.75 C-2.74335937 3.04359375 -2.11171875 2.3371875 -1.4609375 1.609375 C-0.97882812 1.07828125 -0.49671875 0.5471875 0 0 Z " fill="#787879" transform="translate(750,414)"/>
<path d="M0 0 C1 3 1 3 0 6 C-1.62890625 7.38671875 -1.62890625 7.38671875 -3.5625 8.6875 C-4.52349609 9.34298828 -4.52349609 9.34298828 -5.50390625 10.01171875 C-5.99761719 10.33785156 -6.49132812 10.66398437 -7 11 C-7 7.22089522 -6.00296038 6.53893899 -3.5 3.8125 C-2.8503125 3.09707031 -2.200625 2.38164062 -1.53125 1.64453125 C-1.0259375 1.10183594 -0.520625 0.55914062 0 0 Z " fill="#6E6E70" transform="translate(698,477)"/>
<path d="M0 0 C0 3.72820818 -0.84132013 4.97784819 -3 8 C-4.92395293 9.79666851 -6.9177066 11.38043847 -9 13 C-9 8.86218946 -7.28490393 7.79080004 -4.5 4.8125 C-3.6646875 3.91144531 -2.829375 3.01039063 -1.96875 2.08203125 C-0.99421875 1.05142578 -0.99421875 1.05142578 0 0 Z " fill="#868687" transform="translate(886,254)"/>
<path d="M0 0 C0.33 0 0.66 0 1 0 C1.37254569 3.35291118 1.31050198 4.6038423 -0.8125 7.3125 C-3 9 -3 9 -6 9 C-4.47300326 5.56425733 -2.44973747 2.84485642 0 0 Z " fill="#646565" transform="translate(516,704)"/>
<path d="M0 0 C0.33 0.66 0.66 1.32 1 2 C1.66 2.33 2.32 2.66 3 3 C0.03 5.31 -2.94 7.62 -6 10 C-6 6.41087588 -5.33563446 5.89142971 -3 3.3125 C-2.443125 2.68988281 -1.88625 2.06726563 -1.3125 1.42578125 C-0.879375 0.95527344 -0.44625 0.48476563 0 0 Z " fill="#6D6E6E" transform="translate(539,675)"/>
<path d="M0 0 C0.33 0.99 0.66 1.98 1 3 C-0.109375 4.7890625 -0.109375 4.7890625 -1.75 6.625 C-2.28109375 7.23601563 -2.8121875 7.84703125 -3.359375 8.4765625 C-5 10 -5 10 -8 11 C-6.63629701 8.00779732 -5.05091917 5.70973471 -2.875 3.25 C-2.33617187 2.63640625 -1.79734375 2.0228125 -1.2421875 1.390625 C-0.62730469 0.70226562 -0.62730469 0.70226562 0 0 Z " fill="#797A7C" transform="translate(455,781)"/>
<path d="M0 0 C0.66 0.33 1.32 0.66 2 1 C1.07347299 2.17539996 0.13336613 3.34010577 -0.8125 4.5 C-1.33457031 5.1496875 -1.85664062 5.799375 -2.39453125 6.46875 C-4 8 -4 8 -7 8 C-5.50902342 4.2047869 -3.24299151 2.38957269 0 0 Z " fill="#59595A" transform="translate(719,453)"/>
<path d="M0 0 C0.33 0.99 0.66 1.98 1 3 C-3.455 6.96 -3.455 6.96 -8 11 C-8 8 -8 8 -6.25 5.95703125 C-5.5075 5.24933594 -4.765 4.54164063 -4 3.8125 C-2.88625 2.73935547 -2.88625 2.73935547 -1.75 1.64453125 C-1.1725 1.10183594 -0.595 0.55914063 0 0 Z " fill="#A6A6A8" transform="translate(357,893)"/>
<path d="M0 0 C0.33 0.66 0.66 1.32 1 2 C0.04882866 3.1725131 -0.91117009 4.33787015 -1.875 5.5 C-2.40867187 6.1496875 -2.94234375 6.799375 -3.4921875 7.46875 C-3.98976563 7.9740625 -4.48734375 8.479375 -5 9 C-5.66 9 -6.32 9 -7 9 C-5.44499019 5.18315774 -2.96404505 2.80804268 0 0 Z " fill="#7B7C7D" transform="translate(407,838)"/>
<path d="M0 0 C0.75 1.75 0.75 1.75 1 4 C-1.21867135 6.77333918 -2.60620325 7.86873442 -6 9 C-4.47291037 5.56404834 -2.40072955 2.88087546 0 0 Z " fill="#777779" transform="translate(494,732)"/>
<path d="M0 0 C0.33 1.32 0.66 2.64 1 4 C-1.97 6.475 -1.97 6.475 -5 9 C-5 4.61031544 -2.87194899 3.23094261 0 0 Z " fill="#777879" transform="translate(475,756)"/>
<path d="M0 0 C0.66 0.66 1.32 1.32 2 2 C-2.39453125 6.00390625 -2.39453125 6.00390625 -4 7 C-4.99 6.67 -5.98 6.34 -7 6 C-4.69 4.02 -2.38 2.04 0 0 Z " fill="#202020" transform="translate(311,944)"/>
<path d="M0 0 C0.33 1.32 0.66 2.64 1 4 C-1.97 6.475 -1.97 6.475 -5 9 C-5 4.61031544 -2.87194899 3.23094261 0 0 Z " fill="#828283" transform="translate(466,767)"/>
<path d="M0 0 C0.33 0.99 0.66 1.98 1 3 C-0.65 4.65 -2.3 6.3 -4 8 C-4.66 7.67 -5.32 7.34 -6 7 C-4.02 4.69 -2.04 2.38 0 0 Z " fill="#606061" transform="translate(850,296)"/>
<path d="M0 0 C0.33 0.66 0.66 1.32 1 2 C-0.61594832 4.04119788 -2.2856382 6.04072937 -4 8 C-4.66 8 -5.32 8 -6 8 C-4.55746343 4.63408134 -2.66735273 2.48952921 0 0 Z " fill="#727374" transform="translate(869,274)"/>
<path d="M0 0 C0.33 0.99 0.66 1.98 1 3 C-1.64 4.98 -4.28 6.96 -7 9 C-5.04783565 5.09567131 -3.12613393 2.96160056 0 0 Z " fill="#A9A9AA" transform="translate(379,869)"/>
<path d="M0 0 C0.33 0.99 0.66 1.98 1 3 C-0.65 4.65 -2.3 6.3 -4 8 C-4.66 7.67 -5.32 7.34 -6 7 C-4.02 4.69 -2.04 2.38 0 0 Z " fill="#727373" transform="translate(442,797)"/>
<path d="M0 0 C1.32 0.66 2.64 1.32 4 2 C2.35 3.32 0.7 4.64 -1 6 C-1.33 4.68 -1.66 3.36 -2 2 C-1.34 2 -0.68 2 0 2 C0 1.34 0 0.68 0 0 Z " fill="#565657" transform="translate(888,474)"/>
<path d="M0 0 C0.33 1.32 0.66 2.64 1 4 C-0.98 4.99 -2.96 5.98 -5 7 C-3.70700306 4.11562221 -2.34058637 2.12780579 0 0 Z " fill="#6D6F70" transform="translate(814,338)"/>
</svg>
