<svg xmlns="http://www.w3.org/2000/svg" viewBox="0 0 64 64" role="img" aria-labelledby="title desc">
  <title>UR Ultra Rare</title>
  <desc>Dream badge rarity icon: UR Ultra Rare</desc>
  <g fill="currentColor">

    <path d="M32 3l4.4 14.2L48 7.8l-5.1 14 15.1-1.1-12.1 8.7L60 35l-14.7 2.6 9.9 11.2-13.9-5.6.4 15L32 46.8 22.3 58.2l.4-15-13.9 5.6 9.9-11.2L4 35l14.1-5.6L6 20.7l15.1 1.1L16 7.8l11.6 9.4L32 3z"/>
    <circle cx="32" cy="32" r="26" fill="none" stroke="currentColor" stroke-width="4"/>
    <circle cx="32" cy="32" r="15" fill="white" opacity=".18"/>
    <path d="M32 20l3.3 7.2 7.9.9-5.8 5.4 1.6 7.8-7-3.9-7 3.9 1.6-7.8-5.8-5.4 7.9-.9L32 20z" fill="white" opacity=".32"/>

  </g>
</svg>
