<svg xmlns="http://www.w3.org/2000/svg" viewBox="0 0 64 64" role="img" aria-labelledby="title desc">
  <title>DOUBLE RARE</title>
  <desc>Dream-1 badge rarity icon: DOUBLE RARE</desc>
  <g color="#ffffff" stroke-linecap="round">
    
        <path d="M26 9 L32 23 L47 24 L36 35 L39 50 L26 42 L13 50 L16 35 L5 24 L20 23 Z" fill="currentColor" fill-opacity="0.5" stroke="currentColor" stroke-width="3.5" stroke-linejoin="round"/>
        <path d="M42 14 L47 26 L60 27 L50 36 L53 50 L42 43 L31 50 L34 36 L24 27 L37 26 Z" fill="currentColor" fill-opacity="0.5" stroke="currentColor" stroke-width="3.5" stroke-linejoin="round" opacity="0.82"/>
        
    <path d="M32 20 L36 30 L47 31 L39 38 L41 49 L32 43 L23 49 L25 38 L17 31 L28 30 Z" fill="currentColor" opacity="0.28"/>
  </g>
</svg>
