<svg xmlns="http://www.w3.org/2000/svg" viewBox="0 0 180 180">
  <rect width="180" height="180" rx="40" fill="#06070b"/>
  <circle cx="90" cy="88" r="70" fill="#29339b"/>
  <circle cx="90" cy="88" r="70" fill="none" stroke="#ffffff" stroke-width="7"/>
  <path d="M47 122c26-30 42-60 45-91 29 1 48 18 48 43 0 29-22 49-54 49H75l-7 22H43l4-23Z" fill="#ffffff"/>
  <path d="M70 109h15c19 0 32-13 32-31 0-14-8-24-22-26-5 22-15 41-30 58 1-1 3-1 5-1Z" fill="#29339b"/>
  <path d="M31 141c41-16 80-28 118-37" stroke="#f05a2a" stroke-width="13" stroke-linecap="round"/>
  <path d="M36 144c41-16 80-28 118-37" stroke="#ffffff" stroke-width="4" stroke-linecap="round"/>
</svg>
